<?xml version="1.0" encoding="utf-8"?>
<!-- Generated by IcoMoon.io -->
<!DOCTYPE svg PUBLIC "-//W3C//DTD SVG 1.1//EN" "http://www.w3.org/Graphics/SVG/1.1/DTD/svg11.dtd">
<svg version="1.1" xmlns="http://www.w3.org/2000/svg" xmlns:xlink="http://www.w3.org/1999/xlink" width="518" height="512" viewBox="0 0 518 512"><g id="icomoon-ignore">
</g>
<path d="M96.701 85.477c-90.657 90.657-90.657 238.3 0 328.958s238.3 90.658 328.958 0c90.657-90.658 90.657-238.3 0-328.958s-238.3-90.657-328.958 0zM396.303 385.079c-74.253 74.253-195.994 74.253-270.246 0l48.351-48.351c48.351 48.351 126.058 48.351 173.544 0 48.351-48.351 48.351-126.058 0-173.544l-173.544 173.544c-48.351-48.351-48.351-126.058 0-173.544 48.351-48.351 126.058-48.351 173.544 0l48.351-48.351c75.116 74.253 75.116 195.13 0 270.246z"></path>
</svg>
